<svg xmlns="http://www.w3.org/2000/svg" viewBox="0 0 100 100" width="100" height="100">
  <!-- 背景圆 -->
  <circle cx="50" cy="50" r="45" fill="#3b82f6"/>
  
  <!-- 中国地图轮廓 (简化的几何形状) -->
  <path d="M35 25 L45 20 L55 22 L65 25 L70 35 L68 45 L72 55 L65 65 L55 70 L45 68 L35 65 L28 55 L30 45 L28 35 Z" 
        fill="white" opacity="0.9"/>
  
  <!-- 图表柱状图 -->
  <rect x="38" y="45" width="8" height="20" fill="#1d4ed8" rx="1"/>
  <rect x="48" y="35" width="8" height="30" fill="#1e40af" rx="1"/>
  <rect x="58" y="40" width="8" height="25" fill="#1d4ed8" rx="1"/>
  
  <!-- 上升趋势线 -->
  <polyline points="36 55 48 42 60 38 68 30" 
            fill="none" stroke="#fbbf24" stroke-width="3" stroke-linecap="round" stroke-linejoin="round"/>
  
  <!-- 数据点 -->
  <circle cx="36" cy="55" r="2" fill="#fbbf24"/>
  <circle cx="48" cy="42" r="2" fill="#fbbf24"/>
  <circle cx="60" cy="38" r="2" fill="#fbbf24"/>
  <circle cx="68" cy="30" r="2" fill="#fbbf24"/>
</svg>